<?xml version="1.0" standalone="no"?>
<!DOCTYPE svg PUBLIC "-//W3C//DTD SVG 20010904//EN"
 "http://www.w3.org/TR/2001/REC-SVG-20010904/DTD/svg10.dtd">
<svg version="1.0" xmlns="http://www.w3.org/2000/svg"
 width="1024.000000pt" height="1024.000000pt" viewBox="0 0 1024.000000 1024.000000"
 preserveAspectRatio="xMidYMid meet">
<metadata>
Created by potrace 1.11, written by Peter Selinger 2001-2013
</metadata>
<g transform="translate(0.000000,1024.000000) scale(0.100000,-0.100000)"
fill="#000000" stroke="none">
<path d="M0 5120 l0 -5120 5120 0 5120 0 0 5120 0 5120 -5120 0 -5120 0 0
-5120z m9955 0 l0 -4835 -4835 0 -4835 0 -3 4825 c-1 2654 0 4831 3 4838 3 10
976 12 4837 10 l4833 -3 0 -4835z"/>
<path d="M570 6883 l0 -2788 81 155 c44 85 315 623 601 1195 286 572 880 1757
1320 2633 l799 1592 -1400 0 -1401 0 0 -2787z"/>
<path d="M4240 9594 c80 -42 618 -312 1195 -601 578 -289 1767 -885 2643
-1325 l1592 -799 0 1400 0 1401 -2787 0 -2788 0 145 -76z"/>
<path d="M3632 9558 c-5 -7 -338 -670 -740 -1473 -401 -803 -795 -1590 -875
-1750 -80 -159 -144 -291 -143 -293 2 -2 199 144 437 324 563 424 1099 827
1689 1272 261 196 684 514 938 707 l464 349 -874 437 c-480 241 -876 438 -879
438 -4 1 -11 -5 -17 -11z"/>
<path d="M4990 8029 c-327 -247 -759 -573 -960 -724 -747 -563 -1222 -921
-1726 -1300 -284 -214 -524 -395 -532 -401 -13 -10 3 -36 103 -170 66 -88 711
-949 1433 -1914 723 -965 1316 -1757 1318 -1759 4 -4 76 49 699 514 259 193
549 410 645 481 96 72 346 258 555 414 837 625 1355 1011 1695 1263 140 104
257 191 259 193 5 4 -2877 3848 -2887 3851 -4 1 -275 -201 -602 -448z"/>
<path d="M6040 8365 c0 -4 2621 -3506 2646 -3534 6 -7 884 1760 879 1769 -3 5
-63 38 -133 73 -70 35 -858 430 -1752 878 -1857 930 -1640 822 -1640 814z"/>
<path d="M9070 4958 c-326 -651 -955 -1904 -1397 -2785 l-804 -1603 1400 0
1401 0 0 2785 c0 1532 -2 2785 -4 2785 -2 0 -271 -532 -596 -1182z"/>
<path d="M1107 4524 c-241 -481 -435 -879 -432 -885 4 -5 666 -339 1473 -743
807 -404 1593 -797 1747 -874 154 -77 281 -140 282 -139 1 1 -245 331 -545
733 -301 401 -889 1187 -1306 1745 -418 558 -764 1020 -770 1026 -9 10 -120
-204 -449 -863z"/>
<path d="M8105 3994 c-637 -474 -1248 -930 -1542 -1149 -366 -273 -796 -594
-1351 -1008 l-384 -286 882 -441 c484 -242 885 -438 890 -435 5 3 38 63 73
133 1683 3360 1689 3372 1684 3372 -2 0 -115 -84 -252 -186z"/>
<path d="M570 1971 l0 -1401 2788 0 2787 0 -145 76 c-80 42 -617 312 -1195
601 -577 289 -1767 885 -2642 1325 l-1593 799 0 -1400z"/>
</g>
</svg>
