<?xml version="1.0"?>
<svg width="2048" height="2048" viewBox="0 0 2048 2048" version="1.1" xmlns="http://www.w3.org/2000/svg">
	<defs>
		<style>
			.ka {
				stroke-dasharray: 300;
				stroke-dashoffset: 1200;
				animation: dash 1s linear;
				animation-iteration-count: infinite;
			}

			@keyframes dash {
				from {
					stroke-dashoffset: 1200;
				}

				to {
					stroke-dashoffset: 0;
				}
			}
		</style>
	</defs>
	<path class="ka" d="M1024 356 a477 668 0 1 1 0 1336 a477 668 0, 1, 1, 0, -1336 z" fill="transparent" stroke-width="2px" stroke="#ff5722" transform="rotate(349 1024 1024)"/>
	<path class="ka" d="M1024 362 a473 662 0 1 1 0 1324 a473 662 0, 1, 1, 0, -1324 z" fill="transparent" stroke-width="2px" stroke="#ff5722" transform="rotate(38 1024 1024)"/>
	<path class="ka" d="M1024 356 a477 668 0 1 1 0 1336 a477 668 0, 1, 1, 0, -1336 z" fill="transparent" stroke-width="2px" stroke="#ff5722" transform="rotate(332 1024 1024)"/>
	<path class="ka" d="M1024 372 a466 652 0 1 1 0 1304 a466 652 0, 1, 1, 0, -1304 z" fill="transparent" stroke-width="2px" stroke="#ff5722" transform="rotate(20 1024 1024)"/>
	<path class="ka" d="M1024 369 a468 655 0 1 1 0 1310 a468 655 0, 1, 1, 0, -1310 z" fill="transparent" stroke-width="2px" stroke="#ff5722" transform="rotate(24 1024 1024)"/>
	<path class="ka" d="M1024 356 a477 668 0 1 1 0 1336 a477 668 0, 1, 1, 0, -1336 z" fill="transparent" stroke-width="2px" stroke="#ff5722" transform="rotate(225 1024 1024)"/>
	<path class="ka" d="M1024 363 a472 661 0 1 1 0 1322 a472 661 0, 1, 1, 0, -1322 z" fill="transparent" stroke-width="2px" stroke="#ff5722" transform="rotate(327 1024 1024)"/>
	<path class="ka" d="M1024 359 a475 665 0 1 1 0 1330 a475 665 0, 1, 1, 0, -1330 z" fill="transparent" stroke-width="2px" stroke="#ff5722" transform="rotate(175 1024 1024)"/>
	<path class="ka" d="M1024 355 a478 669 0 1 1 0 1338 a478 669 0, 1, 1, 0, -1338 z" fill="transparent" stroke-width="2px" stroke="#ff5722" transform="rotate(190 1024 1024)"/>
	<path class="ka" d="M1024 373 a465 651 0 1 1 0 1302 a465 651 0, 1, 1, 0, -1302 z" fill="transparent" stroke-width="2px" stroke="#ff5722" transform="rotate(334 1024 1024)"/>
	<path class="ka" d="M1024 374 a464 650 0 1 1 0 1300 a464 650 0, 1, 1, 0, -1300 z" fill="transparent" stroke-width="2px" stroke="#ff5722" transform="rotate(33 1024 1024)"/>
	<path class="ka" d="M1024 363 a472 661 0 1 1 0 1322 a472 661 0, 1, 1, 0, -1322 z" fill="transparent" stroke-width="2px" stroke="#ff5722" transform="rotate(266 1024 1024)"/>
	<path class="ka" d="M1024 369 a468 655 0 1 1 0 1310 a468 655 0, 1, 1, 0, -1310 z" fill="transparent" stroke-width="2px" stroke="#ff5722" transform="rotate(336 1024 1024)"/>
	<path class="ka" d="M1024 362 a473 662 0 1 1 0 1324 a473 662 0, 1, 1, 0, -1324 z" fill="transparent" stroke-width="2px" stroke="#ff5722" transform="rotate(141 1024 1024)"/>
	<path class="ka" d="M1024 373 a465 651 0 1 1 0 1302 a465 651 0, 1, 1, 0, -1302 z" fill="transparent" stroke-width="2px" stroke="#ff5722" transform="rotate(103 1024 1024)"/>
	<path class="ka" d="M1024 366 a470 658 0 1 1 0 1316 a470 658 0, 1, 1, 0, -1316 z" fill="transparent" stroke-width="2px" stroke="#ff5722" transform="rotate(113 1024 1024)"/>
	<path class="ka" d="M1024 356 a477 668 0 1 1 0 1336 a477 668 0, 1, 1, 0, -1336 z" fill="transparent" stroke-width="2px" stroke="#ff5722" transform="rotate(58 1024 1024)"/>
	<path class="ka" d="M1024 359 a475 665 0 1 1 0 1330 a475 665 0, 1, 1, 0, -1330 z" fill="transparent" stroke-width="2px" stroke="#ff5722" transform="rotate(92 1024 1024)"/>
	<path class="ka" d="M1024 370 a467 654 0 1 1 0 1308 a467 654 0, 1, 1, 0, -1308 z" fill="transparent" stroke-width="2px" stroke="#ff5722" transform="rotate(200 1024 1024)"/>
	<path class="ka" d="M1024 363 a472 661 0 1 1 0 1322 a472 661 0, 1, 1, 0, -1322 z" fill="transparent" stroke-width="2px" stroke="#ff5722" transform="rotate(300 1024 1024)"/>
	<path class="ka" d="M1024 369 a468 655 0 1 1 0 1310 a468 655 0, 1, 1, 0, -1310 z" fill="transparent" stroke-width="2px" stroke="#ff5722" transform="rotate(291 1024 1024)"/>
	<path class="ka" d="M1024 365 a471 659 0 1 1 0 1318 a471 659 0, 1, 1, 0, -1318 z" fill="transparent" stroke-width="2px" stroke="#ff5722" transform="rotate(55 1024 1024)"/>
	<path class="ka" d="M1024 353 a479 671 0 1 1 0 1342 a479 671 0, 1, 1, 0, -1342 z" fill="transparent" stroke-width="2px" stroke="#ff5722" transform="rotate(70 1024 1024)"/>
	<path class="ka" d="M1024 365 a471 659 0 1 1 0 1318 a471 659 0, 1, 1, 0, -1318 z" fill="transparent" stroke-width="2px" stroke="#ff5722" transform="rotate(243 1024 1024)"/>
	<path class="ka" d="M1024 360 a474 664 0 1 1 0 1328 a474 664 0, 1, 1, 0, -1328 z" fill="transparent" stroke-width="2px" stroke="#ff5722" transform="rotate(104 1024 1024)"/>
	<path class="ka" d="M1024 360 a474 664 0 1 1 0 1328 a474 664 0, 1, 1, 0, -1328 z" fill="transparent" stroke-width="2px" stroke="#ff5722" transform="rotate(13 1024 1024)"/>
	<path class="ka" d="M1024 355 a478 669 0 1 1 0 1338 a478 669 0, 1, 1, 0, -1338 z" fill="transparent" stroke-width="2px" stroke="#ff5722" transform="rotate(143 1024 1024)"/>
	<path class="ka" d="M1024 355 a478 669 0 1 1 0 1338 a478 669 0, 1, 1, 0, -1338 z" fill="transparent" stroke-width="2px" stroke="#ff5722" transform="rotate(209 1024 1024)"/>
	<path class="ka" d="M1024 373 a465 651 0 1 1 0 1302 a465 651 0, 1, 1, 0, -1302 z" fill="transparent" stroke-width="2px" stroke="#ff5722" transform="rotate(240 1024 1024)"/>
	<path class="ka" d="M1024 365 a471 659 0 1 1 0 1318 a471 659 0, 1, 1, 0, -1318 z" fill="transparent" stroke-width="2px" stroke="#ff5722" transform="rotate(350 1024 1024)"/>
	<path class="ka" d="M1024 370 a467 654 0 1 1 0 1308 a467 654 0, 1, 1, 0, -1308 z" fill="transparent" stroke-width="2px" stroke="#ff5722" transform="rotate(60 1024 1024)"/>
	<path class="ka" d="M1024 353 a479 671 0 1 1 0 1342 a479 671 0, 1, 1, 0, -1342 z" fill="transparent" stroke-width="2px" stroke="#ff5722" transform="rotate(100 1024 1024)"/>
</svg>
